# AST/ASF file generated using VICON BodyLanguage
# -----------------------------------------------
:version 1.10
:name VICON
:units
  mass 1.0
  length 0.45
  angle deg
:documentation
   .ast/.asf automatically generated from VICON data using
   VICON BodyBuilder and BodyLanguage model FoxedUp or BRILLIANT.MOD
:root
   order TX TY TZ RX RY RZ
   axis XYZ
   position 0 0 0  
   orientation 0 0 0 
:bonedata
  begin
     id 1 
     name lhipjoint
     direction 0.561001 -0.76473 0.316963 
     length 2.4722 
     axis 0 0 0  XYZ
  end
  begin
     id 2 
     name lfemur
     direction 0.34202 -0.939693 0  
     length 7.59403  
     axis 0 0 20  XYZ
    dof rx ry rz
    limits (-160.0 20.0)
           (-70.0 70.0)
           (-60.0 70.0)
  end
  begin
     id 3 
     name ltibia
     direction 0.34202 -0.939693 0   
     length 7.89655   
     axis 0 0 20   XYZ
    dof rx
    limits (-10.0 170.0)
  end
  begin
     id 4 
     name lfoot
     direction 0.061296 -0.168409 0.98381   
     length 2.73287   
     axis -90 7.62852e-016 20   XYZ
    dof rx rz
    limits (-45.0 90.0)
           (-70.0 20.0)
  end
  begin
     id 5 
     name ltoes
     direction 1.53547e-011 -4.21984e-011 1   
     length 1.37057   
     axis -90 7.62852e-016 20   XYZ
    dof rx
    limits (-90.0 20.0)
  end
  begin
     id 6 
     name rhipjoint
     direction -0.559611 -0.765599 0.317323   
     length 2.46939  
     axis 0 0 0  XYZ 
  end
  begin
     id 7 
     name rfemur
     direction -0.34202 -0.939693 0   
     length 7.53712   
     axis 0 0 -20   XYZ
    dof rx ry rz
    limits (-160.0 20.0)
           (-70.0 70.0)
           (-70.0 60.0)
  end
  begin
     id 8 
     name rtibia
     direction -0.34202 -0.939693 0   
     length 8.12549   
     axis 0 0 -20   XYZ
    dof rx
    limits (-10.0 170.0)
 end
 begin
     id 9 
     name rfoot
     direction -0.066984 -0.184037 0.980634   
     length 2.67541  
     axis -90 -7.62852e-016 -20   XYZ
    dof rx rz
    limits (-45.0 90.0)
           (-20.0 70.0)
  end
  begin
     id 10 
     name rtoes
     direction -1.53549e-011 -4.21786e-011 1   
     length 1.34085   
     axis -90 -7.62852e-016 -20   XYZ
    dof rx
    limits (-90.0 20.0)
  end
  begin
     id 11 
     name lowerback
     direction -0.0522728 0.992594 -0.109658   
     length 2.05633   
     axis 0 0 0   XYZ
    dof rx ry rz
    limits (-20.0 45.0)
           (-30.0 30.0)
           (-30.0 30.0)
  end
  begin
     id 12 
     name upperback
     direction 0.00589338 0.999977 0.00335704   
     length 2.05845   
     axis 0 0 0   XYZ
    dof rx ry rz
    limits (-20.0 45.0)
           (-30.0 30.0)
           (-30.0 30.0)
  end
  begin
     id 13 
     name thorax
     direction 0.0292928 0.998059 0.0549487   
     length 2.09281   
     axis 0 0 0   XYZ
    dof rx ry rz
    limits (-20.0 45.0)
           (-30.0 30.0)
           (-30.0 30.0)
  end
  begin
     id 14 
     name lowerneck
     direction 0.0356368 0.980775 0.191858   
     length 1.84767   
     axis 0 0 0   XYZ
    dof rx ry rz
    limits (-20.0 45.0)
           (-30.0 30.0)
           (-30.0 30.0)
  end
  begin
     id 15 
     name upperneck
     direction -0.0227605 0.98931 -0.14404   
     length 1.89582   
     axis 0 0 0   XYZ
    dof rx ry rz
    limits (-20.0 45.0)
           (-30.0 30.0)
           (-30.0 30.0)
  end
  begin
     id 16
     name head
     direction -0.00932985 0.997511 -0.0698904  
     length 1.90213  
     axis 0 0 0   XYZ
    dof rx ry rz
    limits (-20.0 45.0)
           (-30.0 30.0)
           (-30.0 30.0)
  end
  begin
     id 17 
     name lclavicle
     direction 0.873442 0.479511 0.0846686  
     length 3.41193  
     axis 0 0 0   XYZ
    dof ry rz
    limits (-20.0 10.0)
           (0.0 20.0)
  end
  begin
     id 18 
     name lhumerus
     direction 1 -4.4897e-011 -5.62117e-018   
     length 5.59864   
     axis 180 -30 -90   XYZ
    dof rx ry rz
    limits (-60.0 90.0)
           (-90.0 90.0)
           (-90.0 90.0)
  end
  begin
     id 19
     name lradius
     direction 1 -4.48966e-011 -6.26295e-027   
     length 3.59542   
     axis 180 -30 -90   XYZ
    dof rx
    limits (-10.0 170.0)
  end
  begin
     id 20
     name lwrist
     direction 1 -4.48947e-011 -1.74096e-026   
     length 1.79771   
     axis 1.04567e-014 90 90   XYZ
    dof ry
    limits (-180.0 0.0)
 end
  begin
     id 21 
     name lhand
     direction 1 -4.49085e-011 -3.48469e-026   
     length 0.572014   
     axis 2.22196e-014 90 90   XYZ
    dof rx rz
    limits (-90.0 90.0)
           (-45.0 45.0)
  end
  begin
     id 22 
     name lfingers
     direction 1 -4.48884e-011 -6.96135e-026   
     length 0.461173   
     axis 4.44383e-014 90 90   XYZ
    dof rx
    limits (0.0 90.0)
  end
  begin
     id 23
     name lthumb
     direction 0.707107 -6.34976e-011 0.707107   
     length 0.662154   
     axis -90 45 -5.4397e-014   XYZ
    dof rx rz
    limits (-45.0 45.0)
           (-45.0 45.0)
  end
  begin
     id 24 
     name rclavicle
     direction -0.890242 0.443271 0.104786   
     length 3.46753  
     axis 0 0 0   XYZ 
    dof ry rz
    limits (-10.0 20.0)
           (-20.0 0.0)
  end
  begin
     id 25 
     name rhumerus
     direction -1 -4.48963e-011 -5.41723e-018  
     length 5.8094   
     axis 180 30 90   XYZ
    dof rx ry rz
    limits (-90.0 60.0)
           (-90.0 90.0)
           (-90.0 90.0)
  end
  begin
     id 26 
     name rradius
     direction -1 -4.48958e-011 -6.51059e-027   
     length 3.66953   
     axis 180 30 90   XYZ
    dof rx
    limits (-10.0 170.0)
  end
  begin
     id 27 
     name rwrist
     direction -1 -4.48975e-011 -1.74124e-026   
     length 1.83476   
     axis 1.04567e-014 -90 -90   XYZ
    dof ry
    limits (-180.0 0.0)
  end
  begin
     id 28
     name rhand
     direction -1 -4.49013e-011 -3.48326e-026   
     length 0.57843   
     axis 2.22196e-014 -90 -90   XYZ
    dof rx rz
    limits (-90.0 90.0)
           (-45.0 45.0)
  end
  begin
     id 29
     name rfingers
     direction -1 -4.49023e-011 -6.9669e-026   
     length 0.466345   
     axis 4.44383e-014 -90 -90   XYZ
    dof rx
    limits (0.0 90.0)
  end
  begin
     id 30
     name rthumb
     direction -0.707107 -6.34926e-011 0.707107   
     length 0.669581   
     axis -90 -45 5.4397e-014   XYZ
    dof rx rz
    limits (-45.0 45.0)
           (-45.0 45.0)
  end
:hierarchy
  begin
    root lhipjoint rhipjoint lowerback
    lhipjoint lfemur
    lfemur ltibia
    ltibia lfoot
    lfoot ltoes
    rhipjoint rfemur
    rfemur rtibia
    rtibia rfoot
    rfoot rtoes
    lowerback upperback
    upperback thorax
    thorax lowerneck lclavicle rclavicle
    lowerneck upperneck
    upperneck head
    lclavicle lhumerus
    lhumerus lradius
    lradius lwrist
    lwrist lhand lthumb
    lhand lfingers
    rclavicle rhumerus
    rhumerus rradius
    rradius rwrist
    rwrist rhand rthumb
    rhand rfingers
  end

#!OML:ASF H:\SkateBoarding\Project 1\Capture day 1\Session 1\Skater.ASF
:FULLY-SPECIFIED
:DEGREES
325
root 7.36896 20.3188 55.8238 7.9247 74.2834 -1.78321
lowerback 8.8625 -0.497661 -3.39966
upperback -0.74844 -1.10103 -1.60604
thorax -5.7298 -0.453792 0.383992
lowerneck -13.939 -11.2043 -6.24824
upperneck 36.2484 -16.3095 5.86923
head 16.4052 -6.60523 0.670862
rclavicle 2.5842e-015 1.27222e-014
rhumerus -28.7543 11.743 -97.7187
rradius 39.9744
rwrist -15.4903
rhand -26.0263 -10.4134
rfingers 7.12502
rthumb 0.520384 -40.3925
lclavicle 2.5842e-015 1.27222e-014
lhumerus -27.7979 0.993836 83.4955
lradius 35.0132
lwrist 18.9969
lhand -21.043 7.07134
lfingers 7.12502
lthumb 5.33278 36.9842
rfemur -16.0965 11.0876 15.448
rtibia 17.9149
rfoot -23.8311 -2.46335
rtoes 3.67476
lfemur -14.4764 -16.5453 -11.4344
ltibia 26.0845
lfoot -36.5853 16.6128
ltoes -16.0887
326
root 7.41394 20.2992 56.0861 8.37272 74.2248 -1.41976
lowerback 8.17873 -0.482573 -3.33356
upperback -0.976055 -1.0536 -1.66035
thorax -5.58516 -0.434522 0.277184
lowerneck -13.7263 -11.136 -6.34994
upperneck 36.6275 -16.0627 5.52251
head 16.4938 -6.54996 0.603491
rclavicle -1.98785e-016 -4.77083e-015
rhumerus -29.6194 12.089 -98.0293
rradius 40.4877
rwrist -16.0608
rhand -25.8381 -10.4899
rfingers 7.12502
rthumb 0.702083 -40.4685
lclavicle -1.98785e-016 -4.77083e-015
lhumerus -28.3608 2.07902 83.21
lradius 34.2327
lwrist 18.3603
lhand -20.5177 7.28363
lfingers 7.12502
lthumb 5.84004 37.1831
rfemur -16.0512 11.6872 15.1869
rtibia 17.901
rfoot -24.5645 -2.29797
rtoes 3.80105
lfemur -14.2246 -18.0906 -11.6448
ltibia 25.8265
lfoot -37.9597 17.5308
ltoes -15.9205
327
root 7.46355 20.2802 56.3587 8.32546 74.3202 -1.34217
lowerback 7.67044 -0.475771 -3.26432
upperback -1.15356 -1.02233 -1.69638
thorax -5.48581 -0.422345 0.192083
lowerneck -13.4814 -11.0796 -6.40789
upperneck 37.024 -15.8495 5.18853
head 16.5857 -6.50067 0.529007
rclavicle -1.92821e-014 2.78299e-014
rhumerus -30.5565 12.308 -98.3476
rradius 41.0495
rwrist -16.5358
rhand -25.7609 -10.5039
rfingers 7.12502
rthumb 0.776689 -40.4822
lclavicle -1.92821e-014 2.78299e-014
lhumerus -28.9282 3.43249 82.7773
lradius 33.3924
lwrist 17.3634
lhand -20.298 7.28744
lfingers 7.12502
lthumb 6.0521 37.181
rfemur -15.6759 12.6056 15.0846
rtibia 17.8526
rfoot -25.6923 -2.20616
rtoes 4.326
lfemur -13.766 -19.8564 -11.7911
ltibia 25.6621
lfoot -39.5613 18.2895
ltoes -15.4785
328
root 7.50913 20.2639 56.6271 7.92158 74.4979 -1.64097
lowerback 7.22978 -0.495312 -3.02977
upperback -1.31416 -1.01289 -1.70112
thorax -5.40793 -0.425629 0.0505254
lowerneck -13.2191 -11.0458 -6.58165
upperneck 37.3693 -15.6855 4.99134
head 16.6848 -6.47153 0.520655
rclavicle 1.94809e-014 1.35174e-014
rhumerus -31.3889 12.7273 -98.6529
rradius 41.5366
rwrist -17.0772
rhand -25.7609 -10.5531
rfingers 7.12502
rthumb 0.776661 -40.5315
lclavicle 1.94809e-014 1.35174e-014
lhumerus -29.4506 4.36797 82.4749
lradius 32.6449
lwrist 16.8264
lhand -20.3507 7.32286
lfingers 7.12502
lthumb 6.00129 37.2179
rfemur -15.2652 13.2243 15.135
rtibia 17.7038
rfoot -26.6059 -2.07561
rtoes 4.68062
lfemur -13.4387 -21.6808 -11.8416
ltibia 25.6011
lfoot -40.9127 19.5149
ltoes -15.7336
329
root 7.55292 20.2499 56.8934 7.2542 74.5704 -2.12182
lowerback 6.93058 -0.511003 -2.84778
upperback -1.47088 -1.00746 -1.63377
thorax -5.4038 -0.427421 0.015346
lowerneck -13.0569 -10.9776 -6.7233
upperneck 37.8042 -15.4324 4.67141
head 16.8302 -6.41155 0.46527
rclavicle -1.98785e-014 7.95139e-015
rhumerus -32.2231 13.2374 -98.954
rradius 41.9951
rwrist -17.5575
rhand -25.5529 -10.5735
rfingers 7.12502
rthumb 0.977597 -40.551
lclavicle -1.98785e-014 7.95139e-015
lhumerus -30.1139 5.33977 82.1697
lradius 32.0587
lwrist 16.5093
lhand -20.1691 7.48992
lfingers 7.12502
lthumb 6.17652 37.3799
rfemur -14.7702 13.6327 15.2888
rtibia 17.5499
rfoot -27.2024 -1.96711
rtoes 4.2988
lfemur -13.0204 -23.5563 -11.9181
ltibia 25.5916
lfoot -42.4256 20.6681
ltoes -15.4262
330
root 7.59157 20.2391 57.1473 5.36492 74.7853 -3.81286
lowerback 6.80593 -0.559091 -2.13485
upperback -1.61494 -1.0056 -1.53328
thorax -5.49297 -0.447772 -0.280881
lowerneck -12.8493 -10.9526 -6.84077
upperneck 38.1894 -15.2694 4.40602
head 16.9525 -6.38178 0.41344
rclavicle -6.31141e-014 -9.54166e-015
rhumerus -32.9237 13.5886 -99.2131
rradius 42.3006
rwrist -17.8164
rhand -25.513 -10.4811
rfingers 7.12502
rthumb 1.01615 -40.4584
lclavicle -6.31141e-014 -9.54166e-015
lhumerus -30.5915 6.69508 81.7386
lradius 31.2533
lwrist 15.7199
lhand -20.0687 7.82496
lfingers 7.12502
lthumb 6.27349 37.7121
rfemur -14.2059 13.7168 15.7933
rtibia 17.3772
rfoot -27.5803 -1.80707
rtoes 4.99404
lfemur -12.592 -25.5098 -11.6952
ltibia 25.638
lfoot -44.0252 21.6801
ltoes -15.1525
331
root 7.62648 20.2217 57.4135 5.53753 74.7691 -3.49024
lowerback 6.54383 -0.54317 -2.25634
upperback -1.75215 -0.987735 -1.49916
thorax -5.48535 -0.433806 -0.181615
lowerneck -12.7812 -10.9073 -7.03006
upperneck 38.5734 -15.0609 4.165
head 17.1192 -6.33711 0.382213
rclavicle -1.83876e-014 1.74931e-014
rhumerus -33.5129 14.0119 -99.443
rradius 42.5195
rwrist -18.0463
rhand -25.3804 -10.3756
rfingers 7.12502
rthumb 1.14421 -40.3522
lclavicle -1.83876e-014 1.74931e-014
lhumerus -31.0703 8.11535 81.3121
lradius 30.551
lwrist 14.9877
lhand -20.2009 7.92527
lfingers 7.12502
lthumb 6.1459 37.8161
rfemur -13.8472 14.1722 15.6592
rtibia 17.2606
rfoot -28.2251 -1.5209
rtoes 5.02857
lfemur -12.2207 -27.8034 -12.0482
ltibia 25.6879
lfoot -46.1998 22.7174
ltoes -14.6053
332
root 7.65494 20.2013 57.6772 4.95597 74.8338 -3.78677
lowerback 6.52696 -0.52276 -2.17667
upperback -1.84939 -0.953799 -1.45503
thorax -5.57857 -0.417946 -0.184141
lowerneck -12.64 -10.908 -7.19743
upperneck 38.9018 -14.9567 3.99867
head 17.2554 -6.32665 0.363382
rclavicle 3.47873e-015 4.77083e-015
rhumerus -34.0651 14.3633 -99.6703
rradius 42.658
rwrist -18.2138
rhand -25.3497 -10.1262
rfingers 7.12502
rthumb 1.17385 -40.1027
lclavicle 3.47873e-015 4.77083e-015
lhumerus -31.5913 8.95449 80.959
lradius 29.9677
lwrist 14.6495
lhand -20.3251 8.11201
lfingers 7.12502
lthumb 6.02597 38.0063
rfemur -13.3355 14.4408 15.7574
rtibia 17.1762
rfoot -28.7042 -1.08736
rtoes 5.84123
lfemur -11.6881 -29.599 -12.3063
ltibia 25.7464
lfoot -47.9546 23.3553
ltoes -14.3316
333
root 7.68381 20.1772 57.9387 4.45943 74.7896 -3.96153
lowerback 6.53991 -0.497296 -2.17747
upperback -1.89503 -0.919398 -1.40786
thorax -5.63344 -0.399585 -0.138269
lowerneck -12.6481 -10.8837 -7.2597
upperneck 39.2319 -14.8067 3.74421
head 17.4038 -6.29207 0.288715
rclavicle -5.30755e-014 2.54444e-014
rhumerus -34.5227 14.8958 -99.9246
rradius 42.7073
rwrist -18.413
rhand -25.4036 -9.8627
rfingers 7.12502
rthumb 1.12173 -39.8395
lclavicle -5.30755e-014 2.54444e-014
lhumerus -32.0264 10.1978 80.4011
lradius 29.313
lwrist 13.762
lhand -19.9824 8.39522
lfingers 7.12502
lthumb 6.35677 38.2798
rfemur -12.864 14.0954 15.8783
rtibia 17.2124
rfoot -28.5412 -0.52076
rtoes 5.40495
lfemur -11.0418 -31.5005 -12.691
ltibia 25.7961
lfoot -49.9331 23.979
ltoes -13.7336
334
root 7.70341 20.1604 58.1985 4.26094 74.9035 -3.96027
lowerback 6.59208 -0.491483 -2.16525
upperback -2.01454 -0.914555 -1.39435
thorax -5.78885 -0.395437 -0.130972
lowerneck -12.5081 -10.9029 -7.41343
upperneck 39.4357 -14.7727 3.68123
head 17.4913 -6.30088 0.298878
rclavicle -1.39149e-015 -3.97569e-015
rhumerus -34.969 15.2584 -100.13
rradius 42.6618
rwrist -18.5535
rhand -25.4636 -9.53394
rfingers 7.12502
rthumb 1.06386 -39.511
lclavicle -1.39149e-015 -3.97569e-015
lhumerus -32.464 11.2376 80.009
lradius 28.643
lwrist 13.6378
lhand -21.1026 8.55401
lfingers 7.12502
lthumb 5.27526 38.4684
rfemur -12.5432 14.0544 15.8622
rtibia 17.2485
rfoot -28.7798 -0.0380931
rtoes 6.46897
lfemur -10.6585 -33.6182 -13.0252
ltibia 25.8834
lfoot -51.8943 24.7412
ltoes -13.3455
335
root 7.72417 20.1376 58.46 4.21488 74.8954 -3.76037
lowerback 6.59322 -0.435594 -2.30225
upperback -2.06552 -0.853601 -1.40871
thorax -5.84246 -0.35971 -0.0760483
lowerneck -12.4723 -10.8927 -7.22643
upperneck 39.668 -14.6939 3.38078
head 17.5453 -6.27176 0.154176
rclavicle -9.24349e-015 2.70347e-014
rhumerus -35.197 15.3051 -100.274
rradius 42.3635
rwrist -18.2792
rhand -25.3456 -9.25172
rfingers 7.12502
rthumb 1.17778 -39.2282
lclavicle -9.24349e-015 2.70347e-014
lhumerus -32.8237 12.6489 79.3701
lradius 27.8925
lwrist 12.7427
lhand -21.2725 8.30774
lfingers 7.12502
lthumb 5.11126 38.2261
rfemur -12.2182 13.3207 15.865
rtibia 17.3181
rfoot -28.3067 0.657394
rtoes 6.11332
lfemur -10.2095 -35.2063 -13.4819
ltibia 25.985
lfoot -53.4697 25.3743
ltoes -13.0754
